HIERARCHY
ROOT Hips
{
	OFFSET 0.000000 0.000000 0.000000
	CHANNELS 6 Xposition Yposition Zposition Xrotation Yrotation Zrotation
	JOINT LeftUpLeg_virtual
	{
		OFFSET 0.000000 0.000000 0.000000
		CHANNELS 3 Xrotation Yrotation Zrotation
		JOINT LeftUpLeg
		{
			OFFSET 15.427100 -6.655098 0.678600
			CHANNELS 3 Xrotation Yrotation Zrotation
			JOINT LeftLeg
			{
				OFFSET 4.081073 -39.591068 13.024000
				CHANNELS 3 Xrotation Yrotation Zrotation
				JOINT LeftFoot
				{
					OFFSET -4.081074 -37.707932 -15.979700
					CHANNELS 3 Xrotation Yrotation Zrotation
					JOINT LeftToeBase
					{
						OFFSET 5.346399 -15.068900 20.645000
						CHANNELS 3 Xrotation Yrotation Zrotation
						JOINT LeftToe_End
						{
							OFFSET 2.754700 0.931300 11.300900
							CHANNELS 3 Xrotation Yrotation Zrotation
							End Site
							{
								OFFSET 0 0 0
							}
						}
					}
				}
			}
		}
	}
	JOINT RightUpLeg_virtual
	{
		OFFSET 0.000000 0.000000 0.000000
		CHANNELS 3 Xrotation Yrotation Zrotation
		JOINT RightUpLeg
		{
			OFFSET -15.569500 -6.655098 0.678600
			CHANNELS 3 Xrotation Yrotation Zrotation
			JOINT RightLeg
			{
				OFFSET -4.081825 -39.591045 13.023800
				CHANNELS 3 Xrotation Yrotation Zrotation
				JOINT RightFoot
				{
					OFFSET 4.081824 -37.707954 -15.979600
					CHANNELS 3 Xrotation Yrotation Zrotation
					JOINT RightToeBase
					{
						OFFSET -5.346400 -15.068900 20.645000
						CHANNELS 3 Xrotation Yrotation Zrotation
						JOINT RightToe_End
						{
							OFFSET -2.754700 0.931300 11.300900
							CHANNELS 3 Xrotation Yrotation Zrotation
							End Site
							{
								OFFSET 0 0 0
							}
						}
					}
				}
			}
		}
	}
	JOINT Spine_virtual
	{
		OFFSET 0.000000 0.000000 0.000000
		CHANNELS 3 Xrotation Yrotation Zrotation
		JOINT Spine
		{
			OFFSET -0.279200 12.230698 -2.892100
			CHANNELS 3 Xrotation Yrotation Zrotation
			JOINT Spine1
			{
				OFFSET -0.232667 10.192268 -1.242267
				CHANNELS 3 Xrotation Yrotation Zrotation
				JOINT Spine1_split
				{
					OFFSET -0.232667 10.192268 -1.242267
					CHANNELS 3 Xrotation Yrotation Zrotation
					JOINT Spine2
					{
						OFFSET -0.232667 10.192268 -1.242267
						CHANNELS 3 Xrotation Yrotation Zrotation
						JOINT Neck_virtual
						{
							OFFSET 0.000000 0.000000 0.000000
							CHANNELS 3 Xrotation Yrotation Zrotation
							JOINT Neck
							{
								OFFSET -0.418800 17.814194 8.416900
								CHANNELS 3 Xrotation Yrotation Zrotation
								JOINT Head
								{
									OFFSET 0.000000 7.031097 3.806800
									CHANNELS 3 Xrotation Yrotation Zrotation
									JOINT HeadTop_End
									{
										OFFSET 0.000000 24.646606 12.978600
										CHANNELS 3 Xrotation Yrotation Zrotation
										End Site
										{
											OFFSET 0 0 0
										}
									}
								}
							}
						}
						JOINT LeftShoulder_virtual
						{
							OFFSET 0.000000 0.000000 0.000000
							CHANNELS 3 Xrotation Yrotation Zrotation
							JOINT LeftShoulder
							{
								OFFSET 8.476499 7.247704 -3.868750
								CHANNELS 3 Xrotation Yrotation Zrotation
								JOINT LeftShoulder_split
								{
									OFFSET 8.476499 7.247704 -3.868750
									CHANNELS 3 Xrotation Yrotation Zrotation
									JOINT LeftArm
									{
										OFFSET 9.308998 -2.777710 0.208600
										CHANNELS 3 Xrotation Yrotation Zrotation
										JOINT LeftForeArm
										{
											OFFSET 29.972298 0.000000 0.000000
											CHANNELS 3 Xrotation Yrotation Zrotation
											JOINT LeftHand
											{
												OFFSET 26.026505 0.000000 0.000000
												CHANNELS 3 Xrotation Yrotation Zrotation
												End Site
												{
													OFFSET 0 0 0
												}
											}
										}
									}
								}
							}
						}
						JOINT RightShoulder_virtual
						{
							OFFSET 0.000000 0.000000 0.000000
							CHANNELS 3 Xrotation Yrotation Zrotation
							JOINT RightShoulder
							{
								OFFSET -7.570500 7.247704 -3.868750
								CHANNELS 3 Xrotation Yrotation Zrotation
								JOINT RightShoulder_split
								{
									OFFSET -7.570500 7.247704 -3.868750
									CHANNELS 3 Xrotation Yrotation Zrotation
									JOINT RightArm
									{
										OFFSET -9.308998 -2.777710 0.208500
										CHANNELS 3 Xrotation Yrotation Zrotation
										JOINT RightForeArm
										{
											OFFSET -29.972300 0.000000 0.000000
											CHANNELS 3 Xrotation Yrotation Zrotation
											JOINT RightHand
											{
												OFFSET -26.026505 0.000000 0.000000
												CHANNELS 3 Xrotation Yrotation Zrotation
												End Site
												{
													OFFSET 0 0 0
												}
											}
										}
									}
								}
							}
						}
					}
				}
			}
		}
	}
}
MOTION
Frames: 5
Frame Time: 0.03333333
15.976573 32.147556 -11.775360 0.000000 0.000000 0.000000 3.122485 -21.799356 10.460019 -90.743578 -16.074242 43.211120 64.914610 -8.148545 -1.563511 46.137248 15.338202 -25.702801 0.411995 -5.431611 1.234962 0.000000 0.000000 0.000000 0.998899 -20.699377 9.974658 -14.548364 -15.372114 -30.755116 106.881402 27.110722 -14.495673 12.531399 -33.369378 44.015716 14.812722 2.979273 -19.377527 0.000000 0.000000 0.000000 0.527448 -12.069296 9.521032 6.095696 1.147400 -8.068580 3.034167 -4.930126 -2.198709 0.166807 0.072821 -0.097055 0.000000 0.000000 0.000000 2.283240 -2.554290 -2.555613 -14.062698 8.201394 7.615641 -24.701229 23.916228 8.992338 0.000000 0.000000 0.000000 0.597202 -3.833552 -3.167384 0.113534 -1.377362 5.109269 -1.278490 1.077527 -0.759860 8.443299 -3.122184 -50.981597 44.393614 -82.033331 35.122240 0.000000 0.000000 0.000000 3.716483 -3.608420 -3.028329 2.379694 11.175634 10.460996 1.120053 4.155586 9.075296 25.787827 25.793067 22.310859 -170.888027 54.215030 -179.904369 0.000000 0.000000 0.000000 
15.954602 32.170830 -11.771919 0.000000 0.000000 0.000000 3.121857 -21.790349 10.467663 -90.709434 -16.069220 43.226761 64.916625 -8.163654 -1.565442 46.123724 15.345733 -25.708328 0.425297 -5.428871 1.235668 0.000000 0.000000 0.000000 1.001187 -20.698214 9.982788 -14.572332 -15.379090 -30.783253 106.892501 27.098231 -14.491390 12.489704 -33.382649 43.984578 14.887024 2.967296 -19.384295 0.000000 0.000000 0.000000 0.557300 -12.049080 9.529791 6.099428 1.151851 -8.082003 3.038460 -4.933365 -2.205738 0.170698 0.074586 -0.098236 0.000000 0.000000 0.000000 2.282092 -2.554866 -2.564534 -14.050187 8.209396 7.607676 -24.628586 23.925195 8.980909 0.000000 0.000000 0.000000 0.603035 -3.838981 -3.173675 0.109043 -1.376710 5.142466 -1.298467 1.033460 -0.795185 8.416606 -3.103892 -50.948457 44.579648 -82.102255 35.313434 0.000000 0.000000 0.000000 3.719840 -3.613019 -3.032817 2.378699 11.164427 10.478009 1.109384 4.156654 9.071015 25.839461 25.736991 22.257191 -170.882467 54.257640 -179.891951 0.000000 0.000000 0.000000 
15.931064 32.205345 -11.768375 0.000000 0.000000 0.000000 3.139434 -21.782218 10.494808 -90.629159 -16.061306 43.229476 64.880793 -8.153508 -1.573709 46.090219 15.373115 -25.734659 0.446156 -5.421717 1.216408 0.000000 0.000000 0.000000 1.015881 -20.695041 10.011468 -14.654465 -15.366225 -30.842802 106.924699 27.070505 -14.473547 12.452840 -33.399502 43.906987 14.993845 2.954486 -19.384990 0.000000 0.000000 0.000000 0.596088 -12.027455 9.557162 6.116761 1.165980 -8.110302 3.042324 -4.931415 -2.218096 0.171981 0.079684 -0.096841 0.000000 0.000000 0.000000 2.277035 -2.550154 -2.580339 -14.036908 8.210436 7.608733 -24.506874 23.851152 8.973466 0.000000 0.000000 0.000000 0.606604 -3.838124 -3.184825 0.105865 -1.370330 5.178659 -1.291170 0.973215 -0.860289 8.300001 -3.039467 -50.908573 44.881173 -82.244726 35.622920 0.000000 0.000000 0.000000 3.724973 -3.611851 -3.044894 2.374618 11.167770 10.515760 1.104691 4.191924 9.092596 25.835221 25.576874 22.214987 -170.899092 54.277570 -179.858579 0.000000 0.000000 0.000000 
15.907086 32.244370 -11.763794 0.000000 0.000000 0.000000 3.165236 -21.780187 10.533461 -90.518755 -16.055106 43.222950 64.817430 -8.123735 -1.587511 46.039928 15.412687 -25.781292 0.465728 -5.411263 1.182017 0.000000 0.000000 0.000000 1.041407 -20.689927 10.054260 -14.774958 -15.344450 -30.914102 106.963672 27.035012 -14.443772 12.443562 -33.410232 43.802068 15.095317 2.946569 -19.383015 0.000000 0.000000 0.000000 0.629675 -12.017486 9.598505 6.144530 1.186656 -8.144195 3.044736 -4.927224 -2.233949 0.169919 0.083978 -0.093540 0.000000 0.000000 0.000000 2.268365 -2.542600 -2.599342 -14.021910 8.207113 7.611287 -24.357025 23.700529 8.962054 0.000000 0.000000 0.000000 0.607872 -3.833351 -3.198415 0.104102 -1.363457 5.207796 -1.262414 0.912690 -0.940662 8.119171 -2.938169 -50.874466 45.246107 -82.420473 35.997187 0.000000 0.000000 0.000000 3.729563 -3.607203 -3.062558 2.370747 11.185098 10.560389 1.090048 4.241798 9.133273 25.791223 25.376521 22.177204 -170.933626 54.278523 -179.809320 0.000000 0.000000 0.000000 
15.884421 32.281956 -11.758598 0.000000 0.000000 0.000000 3.191556 -21.779925 10.576861 -90.395108 -16.054522 43.213487 64.745098 -8.083092 -1.603535 45.983866 15.450445 -25.850584 0.482624 -5.398996 1.139847 0.000000 0.000000 0.000000 1.067160 -20.694618 10.099210 -14.921122 -15.328997 -30.984894 106.998991 27.000943 -14.401853 12.484289 -33.394328 43.717001 15.184173 2.943059 -19.385050 0.000000 0.000000 0.000000 0.654355 -12.018818 9.645374 6.180523 1.209550 -8.172132 3.045805 -4.923748 -2.250880 0.169447 0.085783 -0.091091 0.000000 0.000000 0.000000 2.255180 -2.536830 -2.617556 -14.001325 8.205753 7.605532 -24.198932 23.493564 8.938517 0.000000 0.000000 0.000000 0.610199 -3.829731 -3.211397 0.103847 -1.356636 5.219100 -1.226658 0.875581 -1.012917 7.905014 -2.814597 -50.855051 45.622860 -82.583039 36.381173 0.000000 0.000000 0.000000 3.732561 -3.602622 -3.082562 2.368892 11.219388 10.600911 1.068702 4.303178 9.183813 25.727748 25.194678 22.140516 -170.974552 54.270135 -179.755785 0.000000 0.000000 0.000000 
